<svg xmlns="http://www.w3.org/2000/svg" width="30.16" height="23.515" viewBox="0 0 30.16 23.515">
  <g id="კალათა" transform="translate(0.015 0.015)">
    <g id="Group_4356" data-name="Group 4356">
      <path id="Path_1071" data-name="Path 1071" d="M21.9,17.5a3,3,0,1,0,3,3A2.946,2.946,0,0,0,21.9,17.5Zm0,4.2a1.2,1.2,0,1,1,1.2-1.2A1.29,1.29,0,0,1,21.9,21.7Z" fill="#fff"/>
    </g>
    <g id="Group_4357" data-name="Group 4357">
      <path id="Path_1072" data-name="Path 1072" d="M12.3,17.5a3,3,0,1,0,3,3A2.946,2.946,0,0,0,12.3,17.5Zm0,4.2a1.2,1.2,0,1,1,1.2-1.2A1.29,1.29,0,0,1,12.3,21.7Z" fill="#fff"/>
    </g>
    <path id="Path_953" d="M30.1,4.2,27.3,15.6a.993.993,0,0,1-1,.7H8.3a1.053,1.053,0,0,1-1-.8L4.4,3,4.1,2H.9A.993.993,0,0,1,0,.9H0A.993.993,0,0,1,1.1,0H4.9a1.013,1.013,0,0,1,.9.6L6.4,3H29.2a.919.919,0,0,1,.9,1C30.2,4.1,30.1,4.1,30.1,4.2Z" fill="#fff"/>
  </g>
</svg>
