<svg xmlns="http://www.w3.org/2000/svg" xmlns:xlink="http://www.w3.org/1999/xlink" width="112" height="45" viewBox="0 0 112 45">
  <defs>
    <linearGradient id="linear-gradient" x1="-0.773" y1="2.103" x2="1.281" y2="-0.483" gradientUnits="objectBoundingBox">
      <stop offset="0" stop-color="#fff"/>
      <stop offset="1" stop-color="#eee"/>
    </linearGradient>
    <linearGradient id="linear-gradient-2" x1="-4.614" y1="6.939" x2="3.637" y2="-3.45" gradientUnits="objectBoundingBox">
      <stop offset="0" stop-color="#e6e6e6"/>
      <stop offset="1" stop-color="#fff"/>
    </linearGradient>
  </defs>
  <g id="Group_4457" data-name="Group 4457" transform="translate(-14.768 -16.978)">
    <g id="Group_4456" data-name="Group 4456" transform="translate(15.212 51.398)">
      <path id="Path_1915" data-name="Path 1915" d="M25.356,68.09a10.527,10.527,0,0,1-9.916-7.028,2.624,2.624,0,0,1,2.486-3.481h0A2.625,2.625,0,0,1,20.4,59.329a5.255,5.255,0,0,0,9.911,0,2.624,2.624,0,0,1,2.475-1.748h0a2.624,2.624,0,0,1,2.486,3.481A10.528,10.528,0,0,1,25.356,68.09Z" transform="translate(-15.291 -57.581)" fill="url(#linear-gradient)"/>
    </g>
    <path id="Path_1916" data-name="Path 1916" d="M29.161,39.306a1.164,1.164,0,0,1-.493.475,1.176,1.176,0,0,1-1.107-2.075,2.622,2.622,0,1,0,1.6,1.6Z" transform="translate(-1.418 -3.133)" fill="url(#linear-gradient-2)"/>
    <path id="Path_1917" data-name="Path 1917" d="M35.786,28.245H25.276A10.519,10.519,0,1,0,32.7,31.326Zm-4.5,16.612h0a1.6,1.6,0,0,1-2.258,0l-1.4-1.406a5.255,5.255,0,1,1,2.287-2.228L31.288,42.6A1.6,1.6,0,0,1,31.288,44.857Z" transform="translate(0 -1.716)" fill="url(#linear-gradient)"/>
    <text id="go24.ge" transform="translate(47.079 41.978)" fill="#fff" font-size="23" font-family="Kanit-Medium, Kanit" font-weight="500"><tspan x="0" y="0">go24.ge</tspan></text>
    <text id="ჩვენთან_იპოვი" data-name="ჩვენთან იპოვი" transform="translate(47.768 58.978)" fill="#e4e4e4" font-size="10.5" font-family="SegoeUI, Segoe UI"><tspan x="0" y="0">ჩვენთან იპოვი</tspan></text>
  </g>
</svg>
