<svg id="heart" xmlns="http://www.w3.org/2000/svg" width="23.746" height="21.403" viewBox="0 0 23.746 21.403">
  <g id="Capa_1" data-name="Capa 1" transform="translate(0)">
    <path id="Path_28" data-name="Path 28" d="M23.572,5.711C22.892,2.263,20.429,0,17.3,0a9.382,9.382,0,0,0-5.407,2.017A9.382,9.382,0,0,0,6.45,0C3.3,0,.832,2.252.175,5.723c-.985,5.113,2.17,11.869,11.364,15.61a.938.938,0,0,0,.352.07.95.95,0,0,0,.364-.07C20.371,18,23.748,12.314,23.748,7.541a9.382,9.382,0,0,0-.176-1.83ZM6.45,1.935a7.916,7.916,0,0,1,4.832,2.111.973.973,0,0,0,1.173,0,8,8,0,0,1,4.808-2.041,4.574,4.574,0,0,1,4.374,4.081c.809,4.2-1.9,9.922-9.781,13.288C3.987,16.067,1.266,10.32,2.075,6.087,2.556,3.518,4.268,1.935,6.45,1.935Z" transform="translate(-0.003)" fill="#fff"/>
  </g>
</svg>
