<svg xmlns="http://www.w3.org/2000/svg" width="29.53" height="29.53" viewBox="0 0 29.53 29.53">
  <g id="Group_4840" data-name="Group 4840" transform="translate(-1115 -4594)">
    <g id="Ellipse_314" data-name="Ellipse 314" transform="translate(1115 4594)" fill="#0e141c" stroke="#c9c9c9" stroke-width="2.3">
      <circle cx="14.765" cy="14.765" r="14.765" stroke="none"/>
      <circle cx="14.765" cy="14.765" r="13.615" fill="none"/>
    </g>
    <g id="Group_4800" data-name="Group 4800" transform="translate(277 1936)">
      <g id="messenger_1_" data-name="messenger (1)" transform="translate(846.713 2667)">
        <g id="Group_67" data-name="Group 67">
          <path id="Path_313" data-name="Path 313" d="M6.144,0A5.929,5.929,0,0,0,0,5.688a5.531,5.531,0,0,0,2.289,4.43v2.169l2.092-1.148a6.607,6.607,0,0,0,1.762.238,5.929,5.929,0,0,0,6.144-5.688A5.93,5.93,0,0,0,6.144,0Zm.611,7.66L5.19,5.992,2.137,7.66,5.5,4.1,7.1,5.764,10.112,4.1Z" fill="#c9c9c9"/>
        </g>
      </g>
    </g>
  </g>
</svg>
