<svg id="Group_61" data-name="Group 61" xmlns="http://www.w3.org/2000/svg" width="25.18" height="25.217" viewBox="0 0 25.18 25.217">
  <path id="Path_248" data-name="Path 248" d="M20.255,41.568a2.48,2.48,0,0,0-1.8-.825,2.565,2.565,0,0,0-1.82.82l-1.682,1.676c-.138-.075-.277-.144-.41-.213-.192-.1-.373-.186-.527-.282a18.279,18.279,0,0,1-4.38-3.992A10.784,10.784,0,0,1,8.2,36.486c.436-.4.841-.814,1.235-1.213.149-.149.3-.3.447-.452a2.442,2.442,0,0,0,0-3.683L8.429,29.684c-.165-.165-.335-.335-.495-.506-.319-.33-.655-.671-1-.99a2.519,2.519,0,0,0-1.783-.782,2.607,2.607,0,0,0-1.81.782l-.011.011-1.81,1.825A3.894,3.894,0,0,0,.366,32.5a9.33,9.33,0,0,0,.681,3.949,22.915,22.915,0,0,0,4.071,6.791,25.045,25.045,0,0,0,8.34,6.53,12.994,12.994,0,0,0,4.683,1.384c.112.005.229.011.335.011a4.01,4.01,0,0,0,3.071-1.32c.005-.011.016-.016.021-.027a12.1,12.1,0,0,1,.931-.963c.229-.218.463-.447.692-.687a2.655,2.655,0,0,0,.8-1.841,2.558,2.558,0,0,0-.82-1.825Zm1.905,5.6c-.005,0-.005.005,0,0-.208.224-.42.426-.649.649a13.992,13.992,0,0,0-1.027,1.064,2.566,2.566,0,0,1-2,.846c-.08,0-.165,0-.245-.005a11.543,11.543,0,0,1-4.151-1.245,23.641,23.641,0,0,1-7.855-6.152A21.607,21.607,0,0,1,2.4,35.948a7.6,7.6,0,0,1-.6-3.332,2.443,2.443,0,0,1,.734-1.581l1.815-1.815a1.21,1.21,0,0,1,.809-.378,1.138,1.138,0,0,1,.777.373l.016.016c.325.3.633.617.958.953.165.17.335.341.506.516l1.453,1.453a1.016,1.016,0,0,1,0,1.65c-.154.154-.3.309-.458.458-.447.458-.873.883-1.336,1.3-.011.011-.021.016-.027.027a1.086,1.086,0,0,0-.277,1.208l.016.048a11.665,11.665,0,0,0,1.719,2.8l.005.005a19.534,19.534,0,0,0,4.726,4.3,7.267,7.267,0,0,0,.655.357c.192.1.373.186.527.282.021.011.043.027.064.037a1.154,1.154,0,0,0,.527.133,1.138,1.138,0,0,0,.809-.367l1.82-1.82a1.2,1.2,0,0,1,.8-.4,1.084,1.084,0,0,1,.766.389l.011.011,2.932,2.932A1.052,1.052,0,0,1,22.16,47.172Z" transform="translate(-0.344 -25.947)" fill="#c9c9c9"/>
  <path id="Path_249" data-name="Path 249" d="M245.535,87.351a6.849,6.849,0,0,1,5.578,5.578.714.714,0,0,0,.708.6.952.952,0,0,0,.122-.011.719.719,0,0,0,.591-.83,8.282,8.282,0,0,0-6.748-6.748.722.722,0,0,0-.83.585A.711.711,0,0,0,245.535,87.351Z" transform="translate(-231.926 -81.352)" fill="#c9c9c9"/>
  <path id="Path_250" data-name="Path 250" d="M260.723,11.124A13.638,13.638,0,0,0,249.61.011a.717.717,0,1,0-.234,1.416,12.181,12.181,0,0,1,9.931,9.931.714.714,0,0,0,.708.6.951.951,0,0,0,.122-.011A.705.705,0,0,0,260.723,11.124Z" transform="translate(-235.554 0)" fill="#c9c9c9"/>
</svg>
