<svg id="sale" xmlns="http://www.w3.org/2000/svg" width="70" height="62.601" viewBox="0 0 70 62.601">
  <path id="Path_1928" data-name="Path 1928" d="M65.351,10.865H62.614l0-4.893A5.964,5.964,0,0,0,56.662.012L35.889,0h0a4.4,4.4,0,0,0-3.131,1.3L1.744,32.308a5.958,5.958,0,0,0,0,8.425L21.87,60.859a5.965,5.965,0,0,0,8.426,0L49.821,41.334A1.367,1.367,0,0,0,47.887,39.4L28.362,58.926a3.227,3.227,0,0,1-4.558,0L3.678,38.8a3.223,3.223,0,0,1,0-4.559L34.689,3.23a1.682,1.682,0,0,1,1.2-.5h0l20.773.012a3.227,3.227,0,0,1,3.222,3.225l-.006,11.457H53.718a1.909,1.909,0,0,1-1.358-.566,5.046,5.046,0,1,0-2.985.309,4.656,4.656,0,0,0,4.342,2.991h6.157l0,6.554a1.679,1.679,0,0,1-.5,1.2l-3.753,3.754A1.367,1.367,0,0,0,57.555,33.6l3.754-3.754a4.4,4.4,0,0,0,1.3-3.129l0-6.556h2.742a4.648,4.648,0,0,0,0-9.3ZM48.741,10.6a2.3,2.3,0,0,1,3.617.466,4.667,4.667,0,0,0-3.111,3.174,2.3,2.3,0,0,1-.506-3.641Zm16.61,6.825H62.61l0-3.828h2.739a1.914,1.914,0,1,1,0,3.828Zm0,0" transform="translate(0 0)" fill="#656565"/>
  <path id="Path_1929" data-name="Path 1929" d="M161.1,216.786a1.39,1.39,0,0,0,1.712.967l14.275-3.973a1.39,1.39,0,1,0-.746-2.679l-14.275,3.973A1.391,1.391,0,0,0,161.1,216.786Zm0,0" transform="translate(-139.146 -182.254)" fill="#656565"/>
  <path id="Path_1930" data-name="Path 1930" d="M199.166,258.077a4.1,4.1,0,1,0,5.8,0A4.073,4.073,0,0,0,199.166,258.077ZM203,261.909a1.318,1.318,0,1,1,0-1.865,1.32,1.32,0,0,1,0,1.865Zm0,0" transform="translate(-170.96 -221.847)" fill="#656565"/>
  <path id="Path_1931" data-name="Path 1931" d="M209.93,162.624a4.105,4.105,0,1,0-2.9,1.2A4.1,4.1,0,0,0,209.93,162.624Zm-3.832-3.832a1.319,1.319,0,1,1,0,1.865,1.31,1.31,0,0,1,0-1.865Zm0,0" transform="translate(-175.25 -134.402)" fill="#656565"/>
  <path id="Path_1932" data-name="Path 1932" d="M60.3,89.827a1.414,1.414,0,0,0-1.967,0L54.38,93.687a1.336,1.336,0,0,0,0,1.921l17.633,17.23a1.414,1.414,0,0,0,1.966,0l26.364-25.762a1.337,1.337,0,0,0,0-1.922L82.711,67.926a1.413,1.413,0,0,0-1.966,0L66.2,82.14a1.337,1.337,0,0,0,0,1.922,1.414,1.414,0,0,0,1.966,0L81.727,70.808,97.394,86.116,73,109.956,57.33,94.648l2.968-2.9a1.337,1.337,0,0,0,0-1.921Zm0,0" transform="translate(-46.467 -58.138)" fill="#656565"/>
  <path id="Path_1933" data-name="Path 1933" d="M377.012,256.973a1.391,1.391,0,1,0,.983.407A1.4,1.4,0,0,0,377.012,256.973Zm0,0" transform="translate(-324.302 -221.867)" fill="#656565"/>
  <path id="Path_1934" data-name="Path 1934" d="M113.045,202.8a1.389,1.389,0,1,0-.983.407A1.392,1.392,0,0,0,113.045,202.8Zm0,0" transform="translate(-95.551 -173.042)" fill="#656565"/>
</svg>
