<svg id="shopping" xmlns="http://www.w3.org/2000/svg" width="70" height="65.059" viewBox="0 0 70 65.059">
  <path id="Path_1941" data-name="Path 1941" d="M215.628,301.631a1.369,1.369,0,1,0-1.936,0A1.37,1.37,0,0,0,215.628,301.631Zm0,0" transform="translate(-184.132 -258.377)" fill="#656565"/>
  <path id="Path_1942" data-name="Path 1942" d="M225.376,63.74v2.736a8.209,8.209,0,0,0,16.418,0V63.74a1.368,1.368,0,1,0,0-2.736h-2.736a1.368,1.368,0,1,0,0,2.736v2.736a5.473,5.473,0,0,1-10.945,0V63.74a1.368,1.368,0,1,0,0-2.736h-2.736a1.368,1.368,0,1,0,0,2.736Zm0,0" transform="translate(-193.39 -52.658)" fill="#656565"/>
  <path id="Path_1943" data-name="Path 1943" d="M15.889,64.659a1.368,1.368,0,0,0,1.933,0l4.2-4.2a6.329,6.329,0,0,0,1.836-5.13l1.506-1.454a6.343,6.343,0,0,1,4.422-1.786h18A12.235,12.235,0,0,0,56.366,48.6a1.283,1.283,0,0,0,.1-.1L68.711,33.791a5.469,5.469,0,0,0-8.324-7.1l-1.323,1.368V1.367A1.367,1.367,0,0,0,57.7,0H22.559a1.367,1.367,0,0,0-1.367,1.367V32A16.446,16.446,0,0,0,9.436,41.2a6.314,6.314,0,0,0-4.814,1.856L.4,47.256a1.367,1.367,0,0,0,0,1.936ZM56.33,2.734V30.89l-3.957,4.091a5.493,5.493,0,0,0-4.247-2.031H32.275A.755.755,0,0,1,32,32.891a17.668,17.668,0,0,0-6.7-1.308c-.458,0-.914.017-1.367.046V2.734ZM22.755,34.5a15.535,15.535,0,0,1,8.214.928,3.479,3.479,0,0,0,1.305.26H48.126a2.734,2.734,0,0,1,0,5.469h-11.9a1.367,1.367,0,1,0,0,2.734h11.9A5.475,5.475,0,0,0,53.6,38.419a5.53,5.53,0,0,0-.049-.718c.285-.292,8.549-8.839,8.835-9.136.021-.022.042-.044.061-.067a2.735,2.735,0,1,1,4.173,3.535L54.409,46.693a9.514,9.514,0,0,1-6.624,2.664h-18a9.063,9.063,0,0,0-6.321,2.552l-.6.582a6.365,6.365,0,0,0-.84-1.034l-8.4-8.4a6.384,6.384,0,0,0-1.508-1.116A13.688,13.688,0,0,1,22.755,34.5Zm-16.2,10.5a3.625,3.625,0,0,1,5.135,0l8.4,8.4a3.627,3.627,0,0,1,0,5.135l-3.233,3.233L3.3,48.227Zm0,0" transform="translate(0 0)" fill="#656565"/>
</svg>
